<mxfile host="app.diagrams.net" modified="2020-09-03T07:02:33.449Z" agent="5.0 (X11)" etag="DqCo3N-oTaCsAIhrvVGy" version="13.6.6" type="github">
  <diagram id="ABPf4gMQrz8rWeOrcxoh" name="Page-1">
    <mxGraphModel dx="1418" dy="792" grid="1" gridSize="10" guides="1" tooltips="1" connect="1" arrows="1" fold="1" page="1" pageScale="1" pageWidth="850" pageHeight="1100" math="0" shadow="0">
      <root>
        <mxCell id="0" />
        <mxCell id="1" parent="0" />
        <mxCell id="BC6SIgkMuatq0ajvi_0X-2" value="ODA" style="rounded=1;whiteSpace=wrap;html=1;" vertex="1" parent="1">
          <mxGeometry x="152.5" y="80" width="195" height="300" as="geometry" />
        </mxCell>
        <mxCell id="cQD9Gc0wUEaLlVU0dFFl-1" value="API Gateway" style="rounded=1;whiteSpace=wrap;html=1;" parent="1" vertex="1">
          <mxGeometry x="190" y="110" width="120" height="60" as="geometry" />
        </mxCell>
        <mxCell id="BC6SIgkMuatq0ajvi_0X-1" value="HPC Workers" style="rounded=1;whiteSpace=wrap;html=1;" vertex="1" parent="1">
          <mxGeometry x="530" y="120" width="120" height="60" as="geometry" />
        </mxCell>
        <mxCell id="BC6SIgkMuatq0ajvi_0X-3" value="Actor" style="shape=umlActor;verticalLabelPosition=bottom;verticalAlign=top;html=1;outlineConnect=0;" vertex="1" parent="1">
          <mxGeometry x="630" y="30" width="30" height="60" as="geometry" />
        </mxCell>
        <mxCell id="BC6SIgkMuatq0ajvi_0X-5" value="Actor" style="shape=umlActor;verticalLabelPosition=bottom;verticalAlign=top;html=1;outlineConnect=0;" vertex="1" parent="1">
          <mxGeometry x="560" y="300" width="30" height="60" as="geometry" />
        </mxCell>
        <mxCell id="BC6SIgkMuatq0ajvi_0X-7" value="Actor" style="shape=umlActor;verticalLabelPosition=bottom;verticalAlign=top;html=1;outlineConnect=0;" vertex="1" parent="1">
          <mxGeometry x="210" y="460" width="30" height="60" as="geometry" />
        </mxCell>
        <mxCell id="BC6SIgkMuatq0ajvi_0X-8" value="k8s Workers" style="rounded=1;whiteSpace=wrap;html=1;" vertex="1" parent="1">
          <mxGeometry x="192.5" y="250" width="115" height="40" as="geometry" />
        </mxCell>
        <mxCell id="BC6SIgkMuatq0ajvi_0X-10" style="edgeStyle=orthogonalEdgeStyle;rounded=0;orthogonalLoop=1;jettySize=auto;html=1;entryX=0.859;entryY=0.833;entryDx=0;entryDy=0;entryPerimeter=0;" edge="1" parent="1" source="BC6SIgkMuatq0ajvi_0X-9" target="BC6SIgkMuatq0ajvi_0X-2">
          <mxGeometry relative="1" as="geometry" />
        </mxCell>
        <mxCell id="BC6SIgkMuatq0ajvi_0X-9" value="reana Workers" style="rounded=1;whiteSpace=wrap;html=1;" vertex="1" parent="1">
          <mxGeometry x="192.5" y="315" width="107.5" height="30" as="geometry" />
        </mxCell>
      </root>
    </mxGraphModel>
  </diagram>
</mxfile>
